inDegrees=no
num_controls=7
num_derivatives=13
num_iterations=110
num_multipliers=7
num_parameters=0
num_slacks=7
num_states=26
objective=0.431347
objective_accelerations=0.001407
objective_balance=0.001692
objective_effort=0.013549
objective_height=0.213476
objective_ligament=0.201223
solver_duration=1454.844782
status=Solve_Succeeded
success=true
DataType=double
version=3
OpenSimVersion=4.5
endheader
time	/jointset/ground_pelvis/pelvis_tilt/value	/jointset/ground_pelvis/pelvis_tx/value	/jointset/ground_pelvis/pelvis_ty/value	/jointset/hip_l/hip_flexion_l/value	/jointset/hip_l/hip_adduction_l/value	/jointset/hip_l/hip_rotation_l/value	/jointset/back/lumbar_extension/value	/jointset/patellofemoral_l/patellar_flexion_l/value	/jointset/knee_l/knee_flexion_l/value	/jointset/knee_l/knee_adduction_l/value	/jointset/knee_l/knee_rotation_l/value	/jointset/ankle_l/ankle_angle_l/value	/jointset/subtalar_l/subtalar_angle_l/value	/jointset/ground_pelvis/pelvis_tilt/speed	/jointset/ground_pelvis/pelvis_tx/speed	/jointset/ground_pelvis/pelvis_ty/speed	/jointset/hip_l/hip_flexion_l/speed	/jointset/hip_l/hip_adduction_l/speed	/jointset/hip_l/hip_rotation_l/speed	/jointset/back/lumbar_extension/speed	/jointset/patellofemoral_l/patellar_flexion_l/speed	/jointset/knee_l/knee_flexion_l/speed	/jointset/knee_l/knee_adduction_l/speed	/jointset/knee_l/knee_rotation_l/speed	/jointset/ankle_l/ankle_angle_l/speed	/jointset/subtalar_l/subtalar_angle_l/speed	/forceset/tau_hip_flexion_l	/forceset/tau_hip_adduction_l	/forceset/tau_hip_rotation_l	/forceset/tau_knee_flexion_l	/forceset/tau_ankle_angle_l	/forceset/tau_subtalar_angle_l	/forceset/tau_lumbar_extension	lambda_cid13_p0	lambda_cid13_p1	lambda_cid13_p2	lambda_cid13_p3	lambda_cid13_p4	lambda_cid13_p5	lambda_cid14_p0	/jointset/ground_pelvis/pelvis_tilt/accel	/jointset/ground_pelvis/pelvis_tx/accel	/jointset/ground_pelvis/pelvis_ty/accel	/jointset/hip_l/hip_flexion_l/accel	/jointset/hip_l/hip_adduction_l/accel	/jointset/hip_l/hip_rotation_l/accel	/jointset/back/lumbar_extension/accel	/jointset/patellofemoral_l/patellar_flexion_l/accel	/jointset/knee_l/knee_flexion_l/accel	/jointset/knee_l/knee_adduction_l/accel	/jointset/knee_l/knee_rotation_l/accel	/jointset/ankle_l/ankle_angle_l/accel	/jointset/subtalar_l/subtalar_angle_l/accel	gamma_cid13_p0	gamma_cid13_p1	gamma_cid13_p2	gamma_cid13_p3	gamma_cid13_p4	gamma_cid13_p5	gamma_cid14_p0
0	-0.00705047329855606	0.04262739109447049	0.9243751926602845	0.3085816938045678	-0.2441203762614335	-0.3254804586579778	-0.3879492264334186	0.2499269421184759	0.2499269421184919	-0.06591272195391479	-0.1745307405801323	-0.0008036623358878681	0.05447092800592565	0	0	0	0	0	0	0	0	0	0	0	0	0	0.006484398368834876	0.003514575791696749	-0.009944973827451249	-0.2562554681692856	0.2860280332854506	-0.04915110368340547	0.0905801885863803	42.99440014415529	13.71286294091149	-2.52005964233604	-33.77050828785663	-698.0759404716548	-46.31497197029621	-22.84424209595604	1.717476097163309	0.3607823612403301	0.1846498228200741	-1.609309247687193	0.8319432330706792	-0.387194093708747	-2.765677690073784	0.8757131215202842	0.8757131215202835	2.139219833195531	-0.09420477246775509	1.414307743133774	1.424450598094106	3.358911634065529e-09	7.653767438654922e-08	-6.887627600715365e-08	5.175184997200824e-09	3.399521552832509e-08	1.140721965999214e-07	4.991376296134704e-09
0.01	-0.006967402684855291	0.04264593087698677	0.924384305276147	0.3085020623800834	-0.2440801347971219	-0.3254964505118212	-0.3880883785448867	0.2499686036786018	0.2499686036785811	-0.06580984139427433	-0.174532310689454	-0.0007341202021990284	0.0545402307773375	0.01640419594308503	0.003761197278887055	0.001817859758398354	-0.0159336002845965	0.007915209643961146	-0.00308182420235697	-0.02799713813017985	0.008111501006279605	0.008111501006279956	0.02019965749267475	-0.000209832761188601	0.01380064945493872	0.01367892930905956	0.0170451114153201	-0.0144420792625886	-0.0100585578778817	-0.2739413423171492	0.3055899534512991	-0.04208232056050335	0.08341887396484544	49.6504690539756	9.999350654188516	-2.524147648219047	-38.63061234900417	-698.0239761780942	-55.8055680187199	-22.84465972228355	1.570400991698821	0.3917755637058081	0.1796613392936125	-1.586483612342942	0.7513544380271	-0.2511815263881473	-2.841739250841861	0.7457459392854316	0.7457459392854968	1.903872279672388	0.03124275665974396	1.346777387917575	1.312366551416463	5.149869040917391e-09	8.14961484358327e-08	-6.600871023413724e-08	2.638882123130542e-09	3.336329934549545e-08	1.222817416939828e-07	4.835294855459295e-09
0.02	-0.006726588181934655	0.04270368006279189	0.9244114579469839	0.3082628753140524	-0.2439647323147738	-0.3255397615962649	-0.3885125035129251	0.2500847557185805	0.2500847557185745	-0.06551625754528381	-0.1745328560695239	-0.0005298048057070214	0.05474087333266133	0.03154877783878383	0.00784188065776591	0.003608010994857077	-0.03191112830904159	0.01503220360669072	-0.005463846120290331	-0.05699457131449053	0.01489809597670723	0.01489809597670788	0.03814065788010981	0.0002049458617857066	0.02695465255962717	0.02626795678230716	0.02760582446165751	-0.03239873431697606	-0.01017214192800815	-0.2916272164650625	0.3251518736171049	-0.03501353743772891	0.07625755934322814	56.3139765449802	6.291289523270378	-2.536819103591546	-43.56108011137465	-697.8901963521378	-65.28522014192772	-22.84570033856209	1.465553287685523	0.4246795812390879	0.1791081184321565	-1.618094795656858	0.6723000968244075	-0.2472336368240931	-2.965736700900254	0.6107319143497996	0.6107319143497901	1.687488412147665	0.03071750436484577	1.284978473084151	1.206470230931929	6.940826447769254e-09	8.645462248511618e-08	-6.314114446112085e-08	1.025792490602592e-10	3.273138316266581e-08	1.304912867880442e-07	4.679213414783885e-09
0.03	-0.006338665228112823	0.04280226078757136	0.9244562348811319	0.3078644093993592	-0.2437823447767406	-0.3256065730686536	-0.3892258848223931	0.2502638183356349	0.2502638183356243	-0.06505391782590786	-0.1745298464405666	-0.0001982614653817285	0.05506140031625063	0.04602368158150837	0.01176996078754395	0.005329756087432834	-0.047725545582471	0.02129070902846713	-0.007866623250911935	-0.08527922849423608	0.02084687445470813	0.02084687445470864	0.05397425520306136	0.0003593493158187751	0.03913201455802753	0.03759175617276285	0.01556432769319661	-0.01672105916336331	-0.009851254859700655	-0.2703906940177405	0.2977452951264353	-0.03823880534464701	0.08454626570888167	47.27167672471465	8.678656241837341	-2.235960498307975	-36.48148752094887	-698.2268978575689	-58.52493396599112	-22.84716370123643	1.436637311777257	0.3612267135396273	0.1660712863057851	-1.554640209316073	0.5794438920475089	-0.2320140412222984	-2.699460914631712	0.5768169324190054	0.5768169324189769	1.478343350690963	0.002145323558318759	1.150816454722069	1.058476063466395	1.162049741984681e-08	7.447914631947413e-08	-5.45178294893075e-08	-6.7305676555304e-10	2.476251158139456e-08	1.046486538249841e-07	7.432995126548035e-09
0.04	-0.005806357557996234	0.04293699321058837	0.9245177019825341	0.3073094943087163	-0.2435420085590524	-0.3256964551703564	-0.3902100388412775	0.2505003419610354	0.2505003419610367	-0.06444383254166128	-0.1745264240655337	0.0002483957732317061	0.05548779354781787	0.06042572109258894	0.0150722203052721	0.006946044445684851	-0.06320096350108124	0.02662193953800034	-0.01007797198319254	-0.1111491131988382	0.02639029764846154	0.02639029764846195	0.0676897708589019	0.0002874950752769431	0.04997743221659716	0.04744120637778551	0.003522830924677806	-0.001043384009815374	-0.009530367791254744	-0.2491541715704369	0.270338716635741	-0.04146407325164456	0.09283497207451455	38.23380802337148	11.06799832985775	-1.938559329038706	-29.45717368366049	-698.5118029747167	-51.75689012032797	-22.84912705988391	1.450980441356225	0.2995154588294727	0.1580167715674144	-1.550294924692962	0.4868451143757942	-0.2089479571561435	-2.482782205871863	0.5296608575002427	0.5296608575002437	1.263872078725542	-0.014534034550313	1.018589605118401	0.9116003938455122	1.635972949636202e-08	6.215451654115318e-08	-4.577583927628184e-08	-1.412390370692999e-09	1.664236256922759e-08	7.810391409785968e-08	1.0246774016713e-08
0.05	-0.005131078898060984	0.04310208256060641	0.9245948199684897	0.3066016882949008	-0.2432526488114886	-0.3258066020526567	-0.3914450124503625	0.2507900450284649	0.2507900450284573	-0.06370664844309032	-0.1745236913179737	0.0007973732533683686	0.05600587335543092	0.07454125418850538	0.01788736949824846	0.008460687718318967	-0.07827602215867235	0.03112882062146751	-0.01190158449900965	-0.1358533304031681	0.03146458398855327	0.03146458398855386	0.07945520068569881	0.0002646920197093646	0.05964852630817645	0.05598441382546938	0.003274336326969148	-0.00180399040791818	-0.009395869082444795	-0.247143207530257	0.265488936682623	-0.03982242838738547	0.09283208380467763	36.75174402822908	10.56893793115429	-1.806917594071968	-27.91774373579725	-698.0824756513946	-52.82153991160688	-22.85161743950217	1.378526947473336	0.2637723319988665	0.1456616139139247	-1.47347776551482	0.4144336747119564	-0.1615860955981757	-2.46539974623706	0.483450672854141	0.483450672854154	1.089103928880263	0.004683532304806282	0.9159421402941346	0.7971251093512849	5.570861827263358e-09	4.284457453885101e-08	-3.5150453128924e-08	-9.074931115430038e-10	1.154599746710666e-08	6.205001642351185e-08	3.810072205651008e-09
